<svg height="32" viewBox="0 0 32 32" width="32" xmlns="http://www.w3.org/2000/svg"><path d="m19.5 3h-10.49723987c-1.10609388 0-2.00276013.89833832-2.00276013 2.00732994v22.98534016c0 1.1086177.89092539 2.0073299 1.99742191 2.0073299h15.00515619c1.1031457 0 1.9974219-.8982124 1.9974219-1.9907951v-17.5092049-.5l-6-7zm-.5 1h-10.0044225c-.54984227 0-.9955775.45526288-.9955775.99545703v23.00908597c0 .5497757.45470893.995457.9999602.995457h15.0000796c.5522628 0 .9999602-.4449463.9999602-.9933977v-17.0066023h-4.0020869c-1.1034169 0-1.9979131-.8865548-1.9979131-2.00591905zm1 .5v4.49121523c0 .55713644.4506511 1.00878477.9967388 1.00878477h3.7032124z" fill="#000" fill-rule="evenodd"/></svg>